<?xml version="1.0" encoding="utf-8"?>
<!-- Generator: Adobe Illustrator 24.3.0, SVG Export Plug-In . SVG Version: 6.00 Build 0)  -->
<svg version="1.1" id="Camada_1" xmlns="http://www.w3.org/2000/svg" xmlns:xlink="http://www.w3.org/1999/xlink" x="0px" y="0px"
	 viewBox="0 0 35 75" style="enable-background:new 0 0 35 75;" xml:space="preserve">
<path d="M3.9,72.8C0.6,71.3,0,63.4,0,59.8c0-1.8,0-3.9,0-6.4c0,0,0.1-38.3,0.4-41.4c0.4-4.6,1.8-8.4,2.8-9.4C4.3,1.6,9.1,0,17.5,0
	s13.2,1.5,14.3,2.6c1.1,1,2.5,4.7,2.8,9.4c0.2,3.1,0.5,41.4,0.5,41.4c0,2.4,0,4.4,0,6.2c0,3.7-0.6,11.7-3.9,13.2
	c-2,0.7-8.2,2.2-13.8,2.2S5.7,73.5,3.9,72.8z M1.5,36.3c-0.1,5.3-0.2,10.3-0.2,13.9c0,0.2,0.2,0.3,0.4,0.2L2,50
	c0.1,0,0.1-0.1,0.1-0.1C3,44.7,3.7,39.9,4,35.2C4,35,3.8,34.9,3.6,35C2.8,35.5,2,35.9,1.5,36.3L1.5,36.3z M27.3,6.7
	c0-0.8-0.4-1.1-1.1-1.2c-2.7-0.5-5.7-0.7-8.8-0.7S11.3,5,8.6,5.5C7.8,5.6,7.5,5.9,7.5,6.7v6.1c0,0.8,0.5,1.1,1.3,1.1
	c2.9-0.2,5.4-0.3,8.7-0.3s5.8,0.1,8.7,0.3c0.8,0.1,1.3-0.3,1.3-1.1C27.3,10.4,27.3,8.2,27.3,6.7L27.3,6.7z M31.3,18.9l0.5-0.9
	c0.4-0.5,0.4-0.8,0.2-1.3c-0.1-0.6-0.1-1.1-0.2-1.6l0,0c0-0.2-0.1-0.6-0.4-1.1c-0.2-0.6-0.2-0.6-0.4,0c-0.1,1.5-0.1,3.1-0.2,4.8
	C31,19.3,31.1,19.3,31.3,18.9L31.3,18.9z M3.9,18.9c0-1.8-0.1-3.4-0.2-4.8c0-0.7-0.1-0.6-0.4,0c-0.1,0.5-0.2,1-0.4,1.1
	c-0.1,0.5-0.2,1-0.2,1.6c-0.1,0.5,0,0.8,0.2,1.3L3.4,19C3.8,19.3,3.9,19.3,3.9,18.9L3.9,18.9z M1.5,33.3C2.2,33,3,32.8,3.7,32.6
	c0.1,0,0.2-0.1,0.2-0.2c0-4.5,0-8.1-0.1-11.2c0-0.1,0-0.1-0.1-0.2l-0.8-0.5l-0.5-0.3c-0.1-0.1-0.4,0-0.4,0.2
	C1.9,24.1,1.6,28.7,1.5,33.3L1.5,33.3z M32.8,20.3l-0.9,0.5l-0.7,0.4c-0.1,0-0.1,0.1-0.1,0.2c0,3.1-0.1,6.7-0.1,11.2
	c0,0.1,0.1,0.2,0.2,0.2c0.7,0.2,1.3,0.4,1.9,0.6c0.1,0.1,0.4,0,0.4-0.2C33.2,28.6,33,24,32.8,20.3L32.8,20.3z M33.4,36.3
	c-0.6-0.4-1.3-0.8-2.1-1.2c-0.1-0.1-0.4,0-0.4,0.2C31,40,31.7,44.8,32.7,50c0,0.1,0,0.1,0.1,0.1l0.4,0.2c0.1,0.1,0.4,0,0.4-0.2
	C33.6,46.5,33.5,41.4,33.4,36.3L33.4,36.3z M30.8,59c1.1-0.4,1.4-0.6,1.4-1.3c0-0.2,0-0.6-0.1-1c-0.2-1.5-0.6-3.4-0.9-5.6
	c-0.2-1.4-0.5-2.8-0.7-4.3c-0.2-1-0.7-1.4-1.9-1.3C24.7,45.9,21,46,17.4,46s-7.2-0.2-11.1-0.5c-1.2-0.1-1.8,0.3-1.9,1.3
	c-0.2,1.5-0.5,2.9-0.7,4.3c-0.4,2.2-0.7,4.1-0.9,5.6c0,0.4-0.1,0.7-0.1,1c0,0.8,0.4,0.9,1.4,1.3c3.8,1.4,7.2,2.2,13.3,2.2
	C23.6,61.3,27,60.5,30.8,59L30.8,59z M26.4,72.4c2-0.5,3.4-1.1,4.2-1.7c0.9-0.6,1.3-1.1,1.4-1.9c0.2-0.9,0.2-3,0.2-4.1
	c0-0.2-0.1-0.2-0.1-0.3c-0.2,0-0.4,0.1-0.5,0.2c-0.4,0.4-1.4,1.3-2,1.9c-0.2,0.3-0.4,0.4-0.5,0.5c0,0-0.1,0.1-0.2,0.1
	c-0.2,0.1-0.4,0.3-0.6,0.7c-0.7,2-1.5,3.6-2.4,4.4c-0.1,0.1-0.1,0.2-0.1,0.3C26.2,72.4,26.3,72.4,26.4,72.4L26.4,72.4z M8.8,72.4
	L8.8,72.4c0-0.1,0-0.2-0.1-0.3c-0.8-0.8-1.6-2.3-2.3-4.4c-0.2-0.3-0.4-0.5-0.6-0.6C5.8,67,5.7,67,5.7,67s-0.3-0.2-0.5-0.4
	c-0.6-0.5-1.6-1.5-2-1.9c-0.1-0.1-0.4-0.3-0.6-0.2c-0.1,0-0.1,0.1-0.1,0.3c0,1.5,0.1,3.3,0.4,4.1c0.2,0.8,0.5,1.3,1.4,1.9
	C5.2,71.4,6.7,71.9,8.8,72.4C8.6,72.4,8.7,72.4,8.8,72.4L8.8,72.4z"/>
</svg>
