<?xml version="1.0" encoding="utf-8"?>
<!-- Generator: Adobe Illustrator 24.3.0, SVG Export Plug-In . SVG Version: 6.00 Build 0)  -->
<svg version="1.1" id="Camada_1" xmlns="http://www.w3.org/2000/svg" xmlns:xlink="http://www.w3.org/1999/xlink" x="0px" y="0px"
	 viewBox="0 0 35 65" style="enable-background:new 0 0 35 65;" xml:space="preserve">
<path d="M34.5,58.4L34.5,58.4c-1.4,3.8-5.1,6.6-9.6,6.6H10.1c-4.5,0-8.2-2.8-9.5-6.6l0,0c-0.5-1-0.6-2.1-0.6-3.3
	c0,0,0.6-10.7,0.6-23.9C0.4,17.9,0,9.9,0,9.9C0,4.4,4.6,0,10.1,0H25C30.5,0,35,4.4,35,9.9c0,0-0.4,7.5-0.5,21.5
	C34.4,44.7,35,55.2,35,55.2C35,56.3,34.9,57.4,34.5,58.4L34.5,58.4z M25.3,64.1c-0.9-1.2-2.3-1.9-4-1.9h-7.7c-1.6,0-3,0.8-4,2
	C9.7,64.1,25.3,64.1,25.3,64.1L25.3,64.1z M29,49.9c1.1-0.5,1.3-1.2,1.3-1.7c0-0.1,0-0.2,0-0.3c-0.4-2.2-1.2-6.9-1.4-8.9
	c-0.1-0.5-0.6-1-1.2-1H7.3c-0.6,0-1.1,0.4-1.2,1c-0.4,1.9-1.2,6.8-1.4,8.9c0,0.1,0,0.2,0,0.3c0,0.5,0.2,1.2,1.3,1.7
	c0.9,0.4,2.3,0.6,4.2,0.6h14.6C26.7,50.6,28.1,50.4,29,49.9L29,49.9z M6.8,63.6C6.7,62.5,6.1,61.2,5,60c-1.1-1.1-2.4-1.7-3.6-1.7
	C2.3,60.8,4.3,62.7,6.8,63.6L6.8,63.6z M5,10c0-0.4-0.1-0.6-0.4-0.8C4.4,9,3.7,8.4,3.1,8.1c-0.4-0.2-0.9,0.1-0.9,1v33.1
	c0,0.3,0.5,0.4,0.6,0.1c0.5-1.7,1.4-6.3,1.8-7.5C4.8,34.1,5,33.2,5,32.4C5,27.2,5,10.3,5,10L5,10z M24.9,2.3H10.1
	c-4.2,0-5.4,2.1-4.9,3.4c0.2,0.5,0.4,0.9,0.9,1.7c0.2,0.4,0.6,0.9,1.6,0.9h19.4c1.1,0,1.3-0.4,1.6-0.9c0.6-1,0.7-1.3,0.9-1.7
	C30.3,4.3,29.1,2.3,24.9,2.3L24.9,2.3z M32.7,8.9c0-0.9-0.6-1.1-0.9-1c-0.6,0.3-1.3,0.9-1.5,1.1c-0.2,0.2-0.4,0.3-0.4,0.8v22.6
	c0,0.8,0.1,1.7,0.4,2.4c0.4,1.2,1.3,5.9,1.8,7.5c0.1,0.3,0.6,0.3,0.6-0.1C32.7,41.8,32.7,16,32.7,8.9L32.7,8.9z M30,60.1
	c-1.2,1.1-1.8,2.4-1.8,3.6c2.5-0.9,4.6-2.8,5.5-5.3C32.4,58.4,31.1,58.9,30,60.1L30,60.1z"/>
</svg>
