<?xml version="1.0" encoding="utf-8"?>
<!-- Generator: Adobe Illustrator 24.3.0, SVG Export Plug-In . SVG Version: 6.00 Build 0)  -->
<svg version="1.1" id="Camada_1" xmlns="http://www.w3.org/2000/svg" xmlns:xlink="http://www.w3.org/1999/xlink" x="0px" y="0px"
	 viewBox="0 0 35 80" style="enable-background:new 0 0 35 80;" xml:space="preserve">
<path d="M12.6,50.7c-3.5-0.5-6.1-1.5-7.5-3c-1.1-1.1-0.7-2.5-0.7-2.5c0-0.3,0.4-29.3,0.5-31.2C5,9.6,9.2,7.2,17.5,7.2
	S30,9.5,30.1,14.1c0,1.9,0.5,30.9,0.5,31.2c0,0,0,0.2,0,0.5c0,0.5-0.1,1.3-0.8,2c-1.4,1.4-3.9,2.5-7.5,3c-2.5,0.3-4.8,0.3-4.8,0.3
	S15.1,51.1,12.6,50.7L12.6,50.7z M18.1,13.7c0-0.6-0.2-1-0.6-1s-0.6,0.5-0.6,1s0.2,1,0.6,1C17.8,14.7,18.1,14.3,18.1,13.7z"/>
<path d="M2,77.8c-2-1.1-2-4.1-2-8.8c0,0,0-27.5,0-31.5c0.1-9.6,0.1-21.4,0-25c-0.2-4.4,0.5-7.3,2-9C3.3,2.2,7,0,17.4,0
	s14.2,2.3,15.4,3.7c1.6,1.7,2.3,4.6,2,9c-0.2,3.7-0.1,15.5,0,25c0,4,0,31.5,0,31.5c0,4.7,0.1,7.7-1.9,8.7c-3.1,1.6-13.8,2-15.4,2
	C16,79.9,5,79.5,2,77.8z M1.7,73.2c0,0-1.2,2.2,0.6,3.6C4.6,78.5,5.8,77,5.8,77c0.8-1.1,0.7-2.6-0.7-3.8C3.8,72.1,2.4,72.2,1.7,73.2
	L1.7,73.2z M10.3,78.5c0.2,0,2.8,0.3,2.9,0.3c-0.1,0-1.8-10.2-2.3-14.4c0,0-2.1-0.3-3.3-0.6C7.8,63.7,8.9,74,10.3,78.5L10.3,78.5z
	 M30.5,60.9c2.7-1.6,2.8-4.7,2.8-7.2v-0.1c0-0.3,0-0.8,0-1.4c0-3.8-0.1-12.4-0.4-17.8c-0.2-6.1-0.6-20.6-0.6-23.5
	c0-2.8,0.1-4.5-3-6.6c-3-2-9.8-2.7-11.8-2.7S8.7,2.2,5.7,4.3c-3.2,2-3,3.8-3,6.6c0,2.9-0.4,17.4-0.6,23.5
	c-0.2,6.3-0.4,16.7-0.4,19.2v0.3c0,2.5,0.1,5.6,2.8,7.2c2.9,1.7,7.8,2.8,13,2.8C22.7,63.7,27.5,62.8,30.5,60.9L30.5,60.9z
	 M32.6,76.7c1.9-1.5,0.8-3.5,0.8-3.5c-0.8-1.1-2.1-1.1-3.5,0c-1.4,1.1-1.5,2.8-0.7,3.8C29.2,77,30.6,78.3,32.6,76.7z M24.6,78.5
	c1.4-4.5,2.7-14.7,2.7-14.7c-1.2,0.3-3.4,0.8-3.3,0.6c-0.5,4.2-2.1,14.4-2.3,14.4C21.8,78.9,24.4,78.6,24.6,78.5L24.6,78.5z"/>
</svg>
