<?xml version="1.0" encoding="utf-8"?>
<!-- Generator: Adobe Illustrator 24.3.0, SVG Export Plug-In . SVG Version: 6.00 Build 0)  -->
<svg version="1.1" id="Camada_1" xmlns="http://www.w3.org/2000/svg" xmlns:xlink="http://www.w3.org/1999/xlink" x="0px" y="0px"
	 viewBox="0 0 30 70" style="enable-background:new 0 0 30 70;" xml:space="preserve">
<g>
	<path d="M29,68.6c0,0,1-0.9,1-1.8l0-54.5c0-3.9-1.5-8.3-3.4-9.8C23.3-0.3,15.1,0,15,0C14.9,0,6.7-0.3,3.4,2.6C1.5,4.1,0,8.5,0,12.3
		l0,54.5c0,0.9,1,1.8,1,1.8L1,70L29,70L29,68.6z M3.5,5C3.4,4.3,5.1,2.3,9,2.3L8.5,3.3L6.2,3.8C6.2,3.8,3.6,5.6,3.5,5L3.5,5z
		 M23.8,3.8l-2.3-0.4L21,2.3c3.8,0,5.6,2.1,5.5,2.7C26.4,5.6,23.8,3.8,23.8,3.8L23.8,3.8z M10.1,48.7h4.5l0,11l-4.5,0L10.1,48.7z
		 M15.4,48.7l4.5,0l0,11h-4.5L15.4,48.7z M20.8,48.7h4.1l0,10.2l-4,0.7C20.8,59.6,20.8,48.7,20.8,48.7L20.8,48.7z M27.7,25l-0.4,3
		l0,11l0.7,2l0,8.7l-1.1,2.5c0,0-1.2-5.4-1.2-7c0-1.7-0.4-12.1,0.4-15.8c0.7-3.7,1-4.8,1-4.8L27.7,25z M15,38.5
		c-0.3,0-0.6-0.3-0.6-0.6c0-0.3,0.3-0.6,0.6-0.6c0.3,0,0.6,0.3,0.6,0.6C15.6,38.2,15.3,38.5,15,38.5z M17.7,34.8
		c-0.5,0-0.9-0.4-0.9-0.9s0.4-0.9,0.9-0.9c0.5,0,0.9,0.4,0.9,0.9C18.6,34.4,18.2,34.8,17.7,34.8z M9.8,16.8v-1.1l10.5,0v1.1
		L9.8,16.8z M8.5,18.5h1.1l-0.4,7.3h0.9l0.4-7.3l4.1,0l0,7.3h0.9l0-7.3l4.1,0l0.4,7.3h0.9l-0.4-7.3l1.1,0l5.3,2.5l-1.5,6.5l-0.7,0.8
		l-19.2,0l-0.7-0.8L3.2,21L8.5,18.5z M2.1,49.8l0-8.7l0.7-2l0-11l-0.4-3l0.6-0.3c0,0,0.3,1.1,1,4.8c0.7,3.7,0.4,14.1,0.4,15.8
		c0,1.7-1.2,7-1.2,7L2.1,49.8z M5.1,48.7h4.1l0,10.9l-4-0.7L5.1,48.7z"/>
	<path d="M23.2,57.9c-0.5,0-0.9-0.4-0.9-0.9c0-0.5,0.4-0.9,0.9-0.9s0.9,0.4,0.9,0.9C24.1,57.5,23.7,57.9,23.2,57.9"/>
	<path d="M7.1,51.3c-0.5,0-0.9-0.4-0.9-0.9c0-0.5,0.4-0.9,0.9-0.9c0.5,0,0.9,0.4,0.9,0.9C8,50.9,7.6,51.3,7.1,51.3"/>
	<path d="M23.2,51.3c-0.5,0-0.9-0.4-0.9-0.9c0-0.5,0.4-0.9,0.9-0.9c0.5,0,0.9,0.4,0.9,0.9C24.1,50.9,23.7,51.3,23.2,51.3"/>
</g>
</svg>
