<?xml version="1.0" encoding="utf-8"?>
<!-- Generator: Adobe Illustrator 24.3.0, SVG Export Plug-In . SVG Version: 6.00 Build 0)  -->
<svg version="1.1" id="Camada_1" xmlns="http://www.w3.org/2000/svg" xmlns:xlink="http://www.w3.org/1999/xlink" x="0px" y="0px"
	 viewBox="0 0 35 70" style="enable-background:new 0 0 35 70;" xml:space="preserve">
<path d="M0,50.8C0.4,56,0.8,61,1.4,66.2c0.3,2.3,1.3,2.9,4.4,3.2c8,0.8,16.1,0.7,24-0.1c2.1-0.2,3-0.8,3.5-2.4
	c0.5-1.6,0.8-3.2,0.9-4.7c0.3-5.4,0.7-27.5,0.7-27.5c0-8.5,0.1-17.1,0-25.6c0-2.4-0.6-4.9-0.8-7.3C34,0.7,33.1,0,31.6,0h-28
	C1.9,0,1.1,0.7,0.9,2C0.7,7.1,0.2,12.2,0.2,17.4c-0.1,4.8,0,9.6,0,14.3C0.1,31.7-0.1,48.8,0,50.8z M32.1,47
	c-5.8,3.3-24.8,3.2-29.1-0.1c0.9-2.4,1.9-4.9,2.8-7.2c0.7-0.1,0.8-0.2,1-0.1c7,0.5,14,0.6,20.9,0.1c0.6-0.1,1.6,0.4,1.7,0.7
	C30.5,42.4,31.3,44.7,32.1,47L32.1,47z M29.7,5.3c-0.3,2.7-0.7,5.4-1.2,8.2H6.3C6,10.6,5.6,7.8,5.1,5.2C10,2.7,25.6,2.8,29.7,5.3
	L29.7,5.3z M32.8,43.2c-2.8-4.3-3.1-8.7-2.3-13.2c0.9,0.5,2.1,1.1,2.2,1.8C33,35.4,32.8,39.2,32.8,43.2L32.8,43.2z M4.7,30
	c0.9,4.6-0.2,10.4-2.4,12.9V31.1C3.1,30.8,3.6,30.5,4.7,30L4.7,30z M4.8,19.4V28c-0.8,0.3-1.6,0.5-2.4,0.8v-8.7
	C3.2,19.9,4,19.7,4.8,19.4z M32.6,20.2v8.7c-0.9-0.3-1.6-0.6-2.3-0.8v-8.7C31.2,19.7,31.9,19.9,32.6,20.2L32.6,20.2z M30.2,18.6
	c0.6-1.3,1.2-2.5,1.6-3.7c0.2,0,0.3,0.1,0.7,0.1v4.3C31.7,19.1,31.1,18.9,30.2,18.6L30.2,18.6z M2.2,19.4c0.1-1.7,0.2-3,0.3-4.4
	c0.2,0,0.5,0,0.7-0.1c0.6,1.2,1,2.4,1.6,3.7C4,18.9,3.3,19.1,2.2,19.4L2.2,19.4z M2.8,66.5C4.9,67,7.4,66.3,9,67.9
	C6.8,67.7,4.3,68.5,2.8,66.5z M32,66.6c-1.5,1.8-4,1.1-6.1,1.3C27.5,66.3,30,67,32,66.6z"/>
</svg>
