<?xml version="1.0" encoding="utf-8"?>
<!-- Generator: Adobe Illustrator 24.3.0, SVG Export Plug-In . SVG Version: 6.00 Build 0)  -->
<svg version="1.1" id="Camada_1" xmlns="http://www.w3.org/2000/svg" xmlns:xlink="http://www.w3.org/1999/xlink" x="0px" y="0px"
	 viewBox="0 0 35 70" style="enable-background:new 0 0 35 70;" xml:space="preserve">
<g>
	<path d="M7.3,69c-2.3-5.6-5.1-3.1-5.2-3.1c-0.9-0.9-2.1-2.4-2.1-4.5c0-4.3,0.8-11.1,0.8-11.1l0.4-7.6c0,0-0.7-0.1-0.8-0.2
		c-0.6-1,0.2-2.7,0.2-2.7l0.5,0.1c0,0,0.1-10.9-0.7-19.2S2.1,6.2,2.7,3.8c0.6-2.4,1.7-2.6,5.8-3.2c3.4-0.5,7.8-0.6,9.2-0.6
		c1.3,0,5.8,0,9.2,0.5c4.1,0.6,5.2,0.9,5.8,3.2c0.7,2.4,3.3,8.6,2.3,16.9c-1.2,8.3-0.9,19.1-0.9,19.1l0.5-0.1c0,0,1,2,0.2,2.7
		c-0.6,0.3-0.8,0.1-0.8,0.1l0.4,7.9c0,0,0.8,7,0.8,11.1c0,1.5-0.5,2.7-2,4.2c-0.6-0.4-2.9-1.6-4.8,3.1c-2.5,1-7.4,1.2-10.9,1.2
		S9.4,70,7.3,69z M3.2,41.7c0,0,3.5-2.3,3.4-12.8c0-10.6-3.5-14-3.5-14L3.2,41.7z M26.7,13.8c-0.1-0.9-0.4-3.4-0.7-5.2
		c-0.3-1.8-5.1-3.4-8.6-3.4H17h-0.5C13,5.3,8.4,6.9,8,8.6c-0.5,1.8-0.7,4.3-0.7,5.2c-0.1,0.9,0.1,2.5,2.4,2.5h7.1h0.5h7
		C26.7,16.3,26.9,14.7,26.7,13.8L26.7,13.8z M31.8,14.8c0,0-3.5,3.4-3.4,14c0,10.6,3.5,12.8,3.5,12.8L31.8,14.8z M17.4,52.2
		c8.1,0,11.3-2.7,12.4-4.4c1.1-1.6-0.4-6.1-0.7-7.5c-0.4-1.4-2.2-1.9-3.7-1.9H18h-1.2H9.5c-1.6,0-3.4,0.4-3.7,1.9
		c-0.4,1.4-1.8,5.8-0.7,7.5C6.2,49.5,9.5,52.2,17.4,52.2V52V52.2z"/>
	<g>
		<path d="M2.2,65.9c0.3,0.4,0.7,0.8,1.1,1.1c0.3,0.3,0.8,0.6,1.2,0.9c0.5,0.3,0.9,0.5,1.4,0.7s1,0.3,1.5,0.4l0,0
			c-1-0.4-1.9-0.8-2.7-1.3C3.7,67.1,3,66.5,2.2,65.9L2.2,65.9z"/>
	</g>
	<g>
		<path d="M32.8,65.6c-0.4,0.3-0.8,0.6-1.2,0.9c-0.4,0.3-0.8,0.5-1.2,0.8c-0.4,0.3-0.8,0.5-1.2,0.7s-0.8,0.5-1.2,0.8l0,0
			c0.9-0.4,1.8-0.9,2.6-1.3c0.4-0.3,0.8-0.5,1.2-0.8C32.2,66.3,32.6,66,32.8,65.6L32.8,65.6z"/>
	</g>
</g>
</svg>
