<?xml version="1.0" encoding="utf-8"?>
<!-- Generator: Adobe Illustrator 24.3.0, SVG Export Plug-In . SVG Version: 6.00 Build 0)  -->
<svg version="1.1" id="Camada_1" xmlns="http://www.w3.org/2000/svg" xmlns:xlink="http://www.w3.org/1999/xlink" x="0px" y="0px"
	 viewBox="0 0 351.4 560" style="enable-background:new 0 0 351.4 560;" xml:space="preserve">
<path d="M27.5,188c-15.1,7.6-21.3,17.8-21.3,34.3H48v241.6c0,49.4,40.5,90.6,90.6,90.6h74.1c50.1,0,90.6-41.2,90.6-90.6V222.4h42.6
	c-0.7-16.5-6.9-26.8-22-34.3h-20.6v-92c0-49.4-40.5-90.6-90.6-90.6h-74.1C88.5,5.5,48,46.7,48,96.1v92L27.5,188z M42.6,181.9V96.1
	C42.6,43.2,85.8,0,138.6,0h74.1c52.8,0,96.1,43.2,96.1,96.1v85.8h16.5c21.3,10.3,26.1,24,26.1,46.7l-42.6-0.7v236.1
	c0,52.8-43.2,96.1-96.1,96.1h-74.1c-52.8,0-96.1-43.2-96.1-96.1V227.8L0,228.5c0-22.6,4.8-36.4,26.1-46.7L42.6,181.9z M98.1,328
	h155.1l23.3,67.3c-61.1,28.8-140.7,28.8-201.1,0L98.1,328z M102.3,334.2l-19.9,57.6c54.9,25.4,131.8,25.4,186.7,0l-19.9-57.6H102.3z
	 M75.5,165.4c60.4-29.5,140-29.5,201.1,0L253.2,232H98.1L75.5,165.4z M82.4,168.1l19.9,58.3h146.9l19.9-58.3
	C214.1,142.8,137.3,142.8,82.4,168.1L82.4,168.1z"/>
</svg>
